# xmcd
#
# Track frame offsets: 
#        150
#        14481
#        26693
#        39147
#        52855
#        67242
#        81107
#        90863
#        103606
#        116854
#        129768
#        144521
#        157768
#
# Disc length: 2261 seconds
#
# Revision: 0
# Processed by: cddbd v1.5.2PL0 Copyright (c) Steve Scherf et al.
# Submitted via: ExactAudioCopyFreeDBPlugin 1.0
#
DISCID=9808d30d
DTITLE=Various Artist - The Rough Guide To Howlin' Wolf [CD2 Inspi
DTITLE=ration)
DYEAR=2012
DGENRE=Blues
TTITLE0=Blind Willie Johnson - It's Nobody's Fault But Mine
TTITLE1=Billy Boy Arnold - I Wish You Would
TTITLE2=Robert Johnson - Travelling Riverside
TTITLE3=Muddy Waters - I'm Ready
TTITLE4=Big Joe Williams - P Vine Blues
TTITLE5=Robert Nighthawk - Black Angel Blues
TTITLE6=Willie Dixon - 29 Ways
TTITLE7=Sonny Boy Williamson - Little Low Woman Blues
TTITLE8=J.B. Lenoir - Let's Roll
TTITLE9=Baby Face Leroy - Rollin' And Tumblin' (Part 1)
TTITLE10=Baby Face Leroy - Rollin' And Tumblin' (Part 2)
TTITLE11=Little Walter - I Just Keep Lovin' Her
TTITLE12=Elmore James - Knocking At Your Door
EXTD=
EXTT0=
EXTT1=
EXTT2=
EXTT3=
EXTT4=
EXTT5=
EXTT6=
EXTT7=
EXTT8=
EXTT9=
EXTT10=
EXTT11=
EXTT12=
PLAYORDER=
